<svg width="115" height="80" viewBox="0 0 115 80" fill="none" xmlns="http://www.w3.org/2000/svg">
<rect x="0.5" y="0.5" width="114" height="79" rx="9.5" fill="url(#paint0_linear)"/>
<rect x="0.5" y="0.5" width="114" height="79" rx="9.5" stroke="#E8E8E8"/>
<rect x="0.5" y="0.5" width="114" height="79" rx="9.5" stroke="#EDEDED"/>
<path d="M36.1961 28H39.7801V13.9082H36.1961L32.6121 16.3496V19.4355L36.0105 17.1406H36.1961V28ZM48.5113 28.3809C52.1637 28.3809 54.4293 25.5781 54.4293 20.9297C54.4293 16.2422 52.1344 13.5273 48.5113 13.5273C44.8785 13.5273 42.5934 16.252 42.5934 20.9199C42.5934 25.5879 44.8492 28.3809 48.5113 28.3809ZM48.5113 25.627C47.1441 25.627 46.2359 24.0938 46.2359 20.9199C46.2359 17.7656 47.1441 16.2812 48.5113 16.2812C49.8785 16.2812 50.7965 17.7656 50.7965 20.9199C50.7965 24.0938 49.8785 25.627 48.5113 25.627ZM61.9691 28.3809C65.6215 28.3809 67.8871 25.5781 67.8871 20.9297C67.8871 16.2422 65.5922 13.5273 61.9691 13.5273C58.3363 13.5273 56.0512 16.252 56.0512 20.9199C56.0512 25.5879 58.307 28.3809 61.9691 28.3809ZM61.9691 25.627C60.602 25.627 59.6937 24.0938 59.6937 20.9199C59.6937 17.7656 60.602 16.2812 61.9691 16.2812C63.3363 16.2812 64.2543 17.7656 64.2543 20.9199C64.2543 24.0938 63.3363 25.627 61.9691 25.627ZM72.2824 20.5879C74.4992 20.5879 75.7883 19.3184 75.7883 17.1016C75.7883 14.9434 74.4602 13.6348 72.2824 13.6348C70.1145 13.6348 68.7766 14.9629 68.7766 17.1016C68.7766 19.3086 70.0754 20.5879 72.2824 20.5879ZM72.2824 18.6641C71.716 18.6641 71.384 18.0977 71.384 17.1113C71.384 16.1543 71.7355 15.5586 72.2824 15.5586C72.8293 15.5586 73.1711 16.1543 73.1711 17.1113C73.1711 18.0879 72.8488 18.6641 72.2824 18.6641ZM74.1574 28L83.3273 13.9082H80.7199L71.55 28H74.1574ZM82.5949 28.1758C84.8117 28.1758 86.091 26.8965 86.091 24.6797C86.091 22.5312 84.7727 21.2129 82.5949 21.2129C80.427 21.2129 79.0891 22.541 79.0891 24.6797C79.0891 26.8965 80.3781 28.1758 82.5949 28.1758ZM82.5949 26.2422C82.0187 26.2422 81.6965 25.6855 81.6965 24.6895C81.6965 23.7422 82.0383 23.1465 82.5949 23.1465C83.1418 23.1465 83.4836 23.7422 83.4836 24.6895C83.4836 25.6758 83.1613 26.2422 82.5949 26.2422ZM10.6651 45.4229C10.8848 47.8398 12.792 49.3164 15.5694 49.3164C18.5928 49.3164 20.6582 47.6729 20.6582 45.2383C20.6582 43.5771 19.6739 42.5049 17.5469 41.8018L16.2989 41.3887C15.042 40.9668 14.4795 40.4043 14.4795 39.6309C14.4795 38.6201 15.4903 37.8906 16.8526 37.8906C18.25 37.8906 19.252 38.6553 19.4717 39.8418H21.6426C21.5196 37.583 19.6036 36.001 16.958 36.001C14.1983 36.001 12.1504 37.6445 12.1504 39.877C12.1504 41.4502 13.1963 42.6719 15.0157 43.2695L16.2989 43.6826C17.7666 44.166 18.3467 44.6934 18.3467 45.5547C18.3467 46.6709 17.2832 47.4268 15.7452 47.4268C14.251 47.4268 13.0996 46.6357 12.8799 45.4229H10.6651ZM25.1326 47.4531C24.2009 47.4531 23.5505 46.9434 23.5505 46.2227C23.5505 45.3877 24.324 44.834 25.6336 44.7812L27.822 44.6846L27.6199 45.6162C27.3826 46.6797 26.3455 47.4531 25.1326 47.4531ZM24.2712 49.1582C25.4138 49.1582 26.4685 48.6309 27.0574 47.7871H27.2156L26.9519 49H29.0701L30.3972 42.751C30.4412 42.5137 30.4763 42.2236 30.4763 41.9688C30.4763 40.2988 28.9734 39.1914 26.7146 39.1914C24.6052 39.1914 23.0144 40.2549 22.5925 41.9512H24.7195C24.9832 41.3184 25.6336 40.9668 26.5476 40.9668C27.6462 40.9668 28.3142 41.4414 28.3142 42.2148C28.3142 42.3291 28.2966 42.4258 28.2615 42.6016L28.1296 43.2168L25.616 43.3135C22.9265 43.4102 21.3884 44.5879 21.3884 46.5215C21.3884 48.0156 22.6277 49.1582 24.2712 49.1582ZM34.6606 49.0439C35.1528 49.0439 35.6011 49.0176 35.8823 48.9473L36.2339 47.2598C36.0229 47.2861 35.7856 47.3037 35.5044 47.3037C34.7925 47.3037 34.3882 47.0225 34.3882 46.3809C34.3882 46.2051 34.4233 45.9766 34.4761 45.7129L35.4516 41.1865H37.5259L37.9038 39.4463H35.8032L36.3218 37.0293H34.1245L33.6235 39.4463H32.0503L31.6899 41.1865H33.2544L32.1821 46.2051C32.1206 46.5039 32.0854 46.7939 32.0854 47.04C32.0854 48.3408 33.1313 49.0439 34.6606 49.0439ZM37.3771 49H39.5568L41.5959 39.3848H39.4162L37.3771 49ZM41.0949 37.7939C41.8156 37.7939 42.4045 37.2139 42.4045 36.4844C42.4045 35.7549 41.8156 35.166 41.0949 35.166C40.383 35.166 39.7941 35.7549 39.7941 36.4844C39.7941 37.2139 40.383 37.7939 41.0949 37.7939ZM42.7743 42.2148C42.7743 43.4805 43.5126 44.2715 45.0243 44.79L46.5185 45.291C47.3095 45.5459 47.582 45.8887 47.582 46.3545C47.582 47.0576 46.8349 47.541 45.7275 47.541C44.6816 47.541 43.9521 47.0225 43.7763 46.3018H41.6405C41.7372 48.0244 43.3632 49.1934 45.7011 49.1934C48.1005 49.1934 49.7792 47.9453 49.7792 46.126C49.7792 44.8779 49.1112 44.1045 47.5292 43.5771L46.0614 43.0762C45.2792 42.8125 44.8925 42.4873 44.8925 41.9951C44.8925 41.3271 45.6132 40.8525 46.6064 40.8525C47.582 40.8525 48.2763 41.2832 48.4257 41.9688H50.4648C50.289 40.2988 48.8476 39.1914 46.6239 39.1914C44.3652 39.1914 42.7743 40.3955 42.7743 42.2148ZM51.3532 49H53.5504L55.2028 41.1865H57.2682L57.6286 39.4463H55.528L55.6862 38.6289C55.8532 37.7939 56.3366 37.416 57.1012 37.416C57.5582 37.416 57.8746 37.46 58.068 37.5127L58.402 35.9131C58.0944 35.834 57.5934 35.7461 56.9957 35.7461C55.0006 35.7461 53.9196 36.5283 53.5504 38.4092L53.3395 39.4463H51.7838L51.4235 41.1865H52.9967L51.3532 49ZM60.5209 47.4531C59.5892 47.4531 58.9388 46.9434 58.9388 46.2227C58.9388 45.3877 59.7123 44.834 61.0218 44.7812L63.2103 44.6846L63.0082 45.6162C62.7709 46.6797 61.7337 47.4531 60.5209 47.4531ZM59.6595 49.1582C60.8021 49.1582 61.8568 48.6309 62.4457 47.7871H62.6039L62.3402 49H64.4584L65.7855 42.751C65.8295 42.5137 65.8646 42.2236 65.8646 41.9688C65.8646 40.2988 64.3617 39.1914 62.1029 39.1914C59.9935 39.1914 58.4027 40.2549 57.9808 41.9512H60.1078C60.3714 41.3184 61.0218 40.9668 61.9359 40.9668C63.0345 40.9668 63.7025 41.4414 63.7025 42.2148C63.7025 42.3291 63.6849 42.4258 63.6498 42.6016L63.5179 43.2168L61.0043 43.3135C58.3148 43.4102 56.7767 44.5879 56.7767 46.5215C56.7767 48.0156 58.016 49.1582 59.6595 49.1582ZM72.0352 39.1914C68.9503 39.1914 66.8145 41.7314 66.8145 45.1328C66.8145 47.5938 68.4141 49.1934 70.9014 49.1934C73.2745 49.1934 74.962 47.7959 75.3136 45.9238H73.1778C72.8614 46.8379 72.0792 47.3477 71.0421 47.3477C69.8643 47.3477 69.0206 46.5127 69.0206 44.9395C69.0206 42.7246 70.2071 41.0283 71.8858 41.0283C72.9317 41.0283 73.7491 41.6348 73.8194 42.5664H75.92C75.92 42.4346 75.9112 42.2939 75.8936 42.1709C75.7003 40.5801 74.2149 39.1914 72.0352 39.1914ZM79.8406 49.0439C80.3328 49.0439 80.7811 49.0176 81.0623 48.9473L81.4139 47.2598C81.2029 47.2861 80.9656 47.3037 80.6844 47.3037C79.9725 47.3037 79.5682 47.0225 79.5682 46.3809C79.5682 46.2051 79.6033 45.9766 79.6561 45.7129L80.6316 41.1865H82.7059L83.0838 39.4463H80.9832L81.5018 37.0293H79.3045L78.8035 39.4463H77.2303L76.8699 41.1865H78.4344L77.3621 46.2051C77.3006 46.5039 77.2654 46.7939 77.2654 47.04C77.2654 48.3408 78.3113 49.0439 79.8406 49.0439ZM82.5571 49H84.7368L86.7759 39.3848H84.5962L82.5571 49ZM86.2749 37.7939C86.9956 37.7939 87.5845 37.2139 87.5845 36.4844C87.5845 35.7549 86.9956 35.166 86.2749 35.166C85.563 35.166 84.9741 35.7549 84.9741 36.4844C84.9741 37.2139 85.563 37.7939 86.2749 37.7939ZM91.6282 47.3652C90.3889 47.3652 89.5803 46.4248 89.5803 44.957C89.5803 42.6719 90.7932 41.0195 92.4719 41.0195C93.72 41.0195 94.4582 41.96 94.4582 43.5332C94.4582 45.6338 93.1838 47.3652 91.6282 47.3652ZM92.6125 39.1914C89.5364 39.1914 87.2952 41.6699 87.2952 45.0713C87.2952 47.5322 88.9739 49.1934 91.4612 49.1934C94.5022 49.1934 96.7522 46.6885 96.7522 43.3135C96.7522 40.835 95.0911 39.1914 92.6125 39.1914ZM97.166 49H99.3545L100.585 43.2607C100.857 42.0127 101.745 41.0898 103.002 41.0898C104.101 41.0898 104.716 41.7754 104.716 42.751C104.716 42.9971 104.681 43.2607 104.619 43.5596L103.459 49H105.639L106.878 43.1904C106.957 42.7949 107.001 42.4082 107.001 42.0654C107.001 40.501 105.911 39.2266 104.101 39.2266C102.703 39.2266 101.771 39.9385 101.165 40.8789H101.007L101.332 39.3848H99.2138L97.166 49ZM35.4412 60.8662H31.367L31.0798 62.2402H33.4109L33.3562 62.4863C33.0896 63.7988 31.9959 64.6602 30.6082 64.6602C29.0974 64.6602 28.1609 63.6348 28.1609 61.9668C28.1609 59.3965 29.6238 57.4756 31.5584 57.4756C32.8572 57.4756 33.7664 58.2002 33.8347 59.2871H35.5711C35.5711 59.1777 35.5711 59.1094 35.5711 59.0479C35.4822 57.2432 33.8142 55.8896 31.6814 55.8896C28.5847 55.8896 26.3494 58.4805 26.3494 62.1035C26.3494 64.5986 27.9832 66.2461 30.4236 66.2461C32.9597 66.2461 34.6345 64.8174 35.1746 62.1514L35.4412 60.8662ZM43.7679 58.5215H42.0657L41.1292 62.9307C40.9036 63.9629 40.2064 64.667 39.1946 64.667C38.3333 64.667 37.9163 64.2568 37.9163 63.416C37.9163 63.2656 37.9505 62.958 37.9984 62.7393L38.8939 58.5215H37.1849L36.2415 63.0127C36.18 63.334 36.139 63.7441 36.139 63.9697C36.139 65.2617 37.0413 66.1504 38.4085 66.1504C39.4818 66.1504 40.2269 65.6514 40.6644 64.9131H40.7806L40.5413 66H42.182L43.7679 58.5215ZM46.6464 64.7969C45.9218 64.7969 45.4159 64.4004 45.4159 63.8398C45.4159 63.1904 46.0175 62.7598 47.036 62.7188L48.7382 62.6436L48.5809 63.3682C48.3964 64.1953 47.5897 64.7969 46.6464 64.7969ZM45.9764 66.123C46.8651 66.123 47.6854 65.7129 48.1434 65.0566H48.2665L48.0614 66H49.7089L50.7411 61.1396C50.7753 60.9551 50.8026 60.7295 50.8026 60.5312C50.8026 59.2324 49.6337 58.3711 47.8768 58.3711C46.2362 58.3711 44.9989 59.1982 44.6708 60.5176H46.3251C46.5302 60.0254 47.036 59.752 47.747 59.752C48.6014 59.752 49.121 60.1211 49.121 60.7227C49.121 60.8115 49.1073 60.8867 49.08 61.0234L48.9774 61.502L47.0223 61.5771C44.9305 61.6523 43.7343 62.5684 43.7343 64.0723C43.7343 65.2344 44.6981 66.123 45.9764 66.123ZM51.0766 66H52.7788L53.6811 61.7686C53.9477 60.5449 54.5834 59.9502 55.6498 59.9502C55.9643 59.9502 56.4428 60.0186 56.7163 60.1143L57.058 58.5352C56.8598 58.4531 56.4907 58.3984 56.1352 58.3984C55.3012 58.3984 54.6586 58.7812 54.2211 59.5195H54.1049L54.31 58.5215H52.6625L51.0766 66ZM59.3076 64.7969C58.583 64.7969 58.0771 64.4004 58.0771 63.8398C58.0771 63.1904 58.6787 62.7598 59.6973 62.7188L61.3994 62.6436L61.2422 63.3682C61.0576 64.1953 60.251 64.7969 59.3076 64.7969ZM58.6377 66.123C59.5264 66.123 60.3467 65.7129 60.8047 65.0566H60.9277L60.7227 66H62.3701L63.4023 61.1396C63.4365 60.9551 63.4639 60.7295 63.4639 60.5312C63.4639 59.2324 62.2949 58.3711 60.5381 58.3711C58.8975 58.3711 57.6602 59.1982 57.332 60.5176H58.9863C59.1914 60.0254 59.6973 59.752 60.4082 59.752C61.2627 59.752 61.7822 60.1211 61.7822 60.7227C61.7822 60.8115 61.7686 60.8867 61.7412 61.0234L61.6387 61.502L59.6836 61.5771C57.5918 61.6523 56.3955 62.5684 56.3955 64.0723C56.3955 65.2344 57.3594 66.123 58.6377 66.123ZM63.772 66H65.4742L66.4312 61.5361C66.6431 60.5654 67.3336 59.8477 68.3111 59.8477C69.1656 59.8477 69.6441 60.3809 69.6441 61.1396C69.6441 61.3311 69.6168 61.5361 69.5689 61.7686L68.6666 66H70.3619L71.3257 61.4814C71.3873 61.1738 71.4214 60.873 71.4214 60.6064C71.4214 59.3896 70.5738 58.3984 69.1656 58.3984C68.0787 58.3984 67.3541 58.9521 66.8824 59.6836H66.7593L67.0123 58.5215H65.3648L63.772 66ZM74.7306 66.0342C75.1134 66.0342 75.462 66.0137 75.6808 65.959L75.9542 64.6465C75.7902 64.667 75.6056 64.6807 75.3868 64.6807C74.8331 64.6807 74.5187 64.4619 74.5187 63.9629C74.5187 63.8262 74.546 63.6484 74.587 63.4434L75.3458 59.9229H76.9591L77.2531 58.5693H75.6193L76.0226 56.6895H74.3136L73.924 58.5693H72.7003L72.42 59.9229H73.6368L72.8029 63.8262C72.755 64.0586 72.7277 64.2842 72.7277 64.4756C72.7277 65.4873 73.5411 66.0342 74.7306 66.0342ZM78.9489 61.502C79.236 60.4355 80.0085 59.7246 81.0065 59.7246C81.9704 59.7246 82.5036 60.3945 82.5036 61.2285C82.5036 61.3242 82.4968 61.4609 82.4899 61.502H78.9489ZM80.3229 66.1504C82.1276 66.1504 83.3923 65.2344 83.7204 63.9355H82.0456C81.7927 64.4482 81.2663 64.7695 80.4255 64.7695C79.5573 64.7695 78.7438 64.209 78.7438 62.917C78.7438 62.835 78.7507 62.7324 78.7575 62.6504H84.0349C84.0964 62.3223 84.1442 61.7617 84.1442 61.4678C84.1374 59.54 82.7975 58.3711 81.0954 58.3711C78.7507 58.3711 77.11 60.2236 77.11 62.9717C77.11 64.9883 78.4772 66.1504 80.3229 66.1504ZM86.7561 61.502C87.0432 60.4355 87.8157 59.7246 88.8137 59.7246C89.7776 59.7246 90.3108 60.3945 90.3108 61.2285C90.3108 61.3242 90.3039 61.4609 90.2971 61.502H86.7561ZM88.1301 66.1504C89.9348 66.1504 91.1995 65.2344 91.5276 63.9355H89.8528C89.5998 64.4482 89.0735 64.7695 88.2327 64.7695C87.3645 64.7695 86.551 64.209 86.551 62.917C86.551 62.835 86.5579 62.7324 86.5647 62.6504H91.842C91.9036 62.3223 91.9514 61.7617 91.9514 61.4678C91.9446 59.54 90.6047 58.3711 88.9026 58.3711C86.5579 58.3711 84.9172 60.2236 84.9172 62.9717C84.9172 64.9883 86.2844 66.1504 88.1301 66.1504Z" fill="#1C1E21"/>
<defs>
<linearGradient id="paint0_linear" x1="57" y1="5" x2="57" y2="80" gradientUnits="userSpaceOnUse">
<stop stop-color="#F5F5F5"/>
<stop offset="1" stop-color="white"/>
</linearGradient>
</defs>
</svg>
