<svg width="115" height="80" viewBox="0 0 115 80" fill="none" xmlns="http://www.w3.org/2000/svg">
<rect x="0.5" y="0.5" width="114" height="79" rx="9.5" fill="url(#paint0_linear)"/>
<rect x="0.5" y="0.5" width="114" height="79" rx="9.5" stroke="#E8E8E8"/>
<rect x="0.5" y="0.5" width="114" height="79" rx="9.5" stroke="#EDEDED"/>
<path fill-rule="evenodd" clip-rule="evenodd" d="M62 18H63C64.1 18 65 18.9 65 20V30C65 31.1 64.1 32 63 32H51C49.9 32 49 31.1 49 30V20C49 18.9 49.9 18 51 18H52V16C52 13.24 54.24 11 57 11C59.76 11 62 13.24 62 16V18ZM55 25C55 26.1 55.9 27 57 27C58.1 27 59 26.1 59 25C59 23.9 58.1 23 57 23C55.9 23 55 23.9 55 25ZM53.9 18H60.1V16C60.1 14.29 58.71 12.9 57 12.9C55.29 12.9 53.9 14.29 53.9 16V18ZM14.1746 49.0195C14.3577 51.0337 15.947 52.2642 18.2615 52.2642C20.781 52.2642 22.5022 50.8945 22.5022 48.8657C22.5022 47.4814 21.6819 46.5879 19.9094 46.002L18.8694 45.6577C17.822 45.3062 17.3533 44.8374 17.3533 44.1929C17.3533 43.3506 18.1956 42.7427 19.3308 42.7427C20.4954 42.7427 21.3303 43.3799 21.5134 44.3687H23.3225C23.22 42.4863 21.6233 41.168 19.4187 41.168C17.1189 41.168 15.4124 42.5376 15.4124 44.3979C15.4124 45.709 16.2839 46.7271 17.8 47.2251L18.8694 47.5693C20.0925 47.9722 20.5759 48.4116 20.5759 49.1294C20.5759 50.0596 19.6897 50.6895 18.408 50.6895C17.1628 50.6895 16.2034 50.0303 16.0203 49.0195H14.1746ZM23.3304 49.0195C23.5135 51.0337 25.1029 52.2642 27.4173 52.2642C29.9369 52.2642 31.6581 50.8945 31.6581 48.8657C31.6581 47.4814 30.8377 46.5879 29.0653 46.002L28.0252 45.6577C26.9779 45.3062 26.5091 44.8374 26.5091 44.1929C26.5091 43.3506 27.3514 42.7427 28.4867 42.7427C29.6512 42.7427 30.4862 43.3799 30.6693 44.3687H32.4784C32.3758 42.4863 30.7792 41.168 28.5746 41.168C26.2748 41.168 24.5682 42.5376 24.5682 44.3979C24.5682 45.709 25.4398 46.7271 26.9559 47.2251L28.0252 47.5693C29.2484 47.9722 29.7318 48.4116 29.7318 49.1294C29.7318 50.0596 28.8456 50.6895 27.5638 50.6895C26.3187 50.6895 25.3592 50.0303 25.1761 49.0195H23.3304ZM34.7055 50.3452H39.5395L39.2026 52.0005H32.457L34.7055 41.4316H36.6098L34.7055 50.3452ZM44.0744 49.0195C44.2575 51.0337 45.8468 52.2642 48.1613 52.2642C50.6808 52.2642 52.402 50.8945 52.402 48.8657C52.402 47.4814 51.5817 46.5879 49.8092 46.002L48.7692 45.6577C47.7218 45.3062 47.2531 44.8374 47.2531 44.1929C47.2531 43.3506 48.0954 42.7427 49.2306 42.7427C50.3952 42.7427 51.2301 43.3799 51.4132 44.3687H53.2223C53.1198 42.4863 51.5231 41.168 49.3185 41.168C47.0187 41.168 45.3122 42.5376 45.3122 44.3979C45.3122 45.709 46.1837 46.7271 47.6999 47.2251L48.7692 47.5693C49.9923 47.9722 50.4757 48.4116 50.4757 49.1294C50.4757 50.0596 49.5895 50.6895 48.3078 50.6895C47.0626 50.6895 46.1032 50.0303 45.9201 49.0195H44.0744ZM55.4421 50.3672H60.386L60.0491 52.0005H53.2009L55.4495 41.4316H62.2976L61.9534 43.0649H57.0242L56.4089 45.8701H61.0745L60.7522 47.4082H56.094L55.4421 50.3672ZM70.3915 45.0132H72.2445L72.2463 44.9949C72.253 44.9288 72.2591 44.8679 72.2591 44.8008C72.2591 42.728 70.4647 41.168 68.0917 41.168C64.7811 41.168 62.3714 43.9805 62.3714 47.877C62.3714 50.5283 64.0707 52.2642 66.6488 52.2642C69.1097 52.2642 70.9627 50.9312 71.4535 48.8291H69.5565C69.1976 49.8765 68.1063 50.5723 66.8246 50.5723C65.2792 50.5723 64.3124 49.481 64.3124 47.7305C64.3124 44.9692 65.9017 42.8599 67.9671 42.8599C69.3661 42.8599 70.3182 43.6875 70.3915 44.9473V45.0132ZM81.6933 48.7119C81.2172 50.9385 79.5913 52.2642 77.0131 52.2642C74.4936 52.2642 73.0581 50.814 73.0434 48.8804C73.0361 48.5801 73.0727 48.2651 73.1386 47.9502L74.5083 41.4316H76.4199L75.0576 47.877C74.9917 48.1772 74.9697 48.4556 74.9697 48.7119C75.0063 49.8472 75.7753 50.5576 77.1889 50.5576C78.5439 50.5576 79.562 49.7373 79.8696 48.3018L81.3271 41.4316H83.2387L81.6933 48.7119ZM82.983 52.0005H84.8946L85.7369 48.0381H87.9195L89.2232 52.0005H91.2593L89.7872 47.8037C91.4351 47.3203 92.4751 45.9434 92.4751 44.354C92.4751 42.6182 91.1714 41.4316 89.2232 41.4316H85.2315L82.983 52.0005ZM86.8135 42.999H88.8863C89.919 42.999 90.5415 43.5703 90.5415 44.5225C90.5415 45.7017 89.5967 46.5366 88.2051 46.5366H86.0518L86.8135 42.999ZM94.8048 50.3672H99.7487L99.4118 52.0005H92.5636L94.8122 41.4316H101.66L101.316 43.0649H96.3869L95.7716 45.8701H100.437L100.115 47.4082H95.4567L94.8048 50.3672ZM28.9683 58.606H29.0386L29.6832 62.7192H26.6011L28.9683 58.606ZM30.1695 66.0005H30.9546L29.5894 57.5454H28.8394L23.8531 66.0005H24.7261L26.2144 63.4048H29.7769L30.1695 66.0005ZM32.9707 65.2739H37.2715L37.1192 66.0005H32.0039L33.8028 57.5454H38.918L38.7598 58.272H34.4649L33.8145 61.313H37.8985L37.7403 62.0278H33.6621L32.9707 65.2739ZM38.52 63.7036C38.6841 65.2036 39.9146 66.1763 41.6489 66.1763C43.4595 66.1763 44.7134 65.1509 44.7134 63.6685C44.7134 62.6782 44.1216 61.9458 42.7857 61.4653L42.0064 61.1899C40.9458 60.8091 40.5064 60.3286 40.5064 59.6665C40.5064 58.7583 41.3442 58.1021 42.5044 58.1021C43.6353 58.1021 44.4849 58.729 44.6607 59.7017H45.4692C45.3462 58.3423 44.1333 57.3696 42.5571 57.3696C40.8931 57.3696 39.6626 58.3716 39.6626 59.731C39.6626 60.686 40.2896 61.436 41.5259 61.8696L42.3286 62.1509C43.436 62.5376 43.8638 63.0415 43.8638 63.7563C43.8638 64.77 42.9966 65.4438 41.7075 65.4438C40.4302 65.4438 39.4751 64.7466 39.3345 63.7036H38.52ZM50.1167 59.7368H49.3257C49.5249 58.3423 50.6909 57.3696 52.1909 57.3696C53.5913 57.3696 54.6635 58.2837 54.6635 59.479C54.6635 60.4399 54.1714 61.1196 52.2671 62.7778L49.478 65.2036L49.4604 65.2739H53.8432L53.6909 66.0005H48.1069L48.2358 65.3735L51.8686 62.186C53.4975 60.7563 53.8432 60.2935 53.8432 59.561C53.8432 58.7056 53.1225 58.0728 52.1382 58.0728C51.1186 58.0728 50.2983 58.7466 50.1167 59.7368ZM57.9453 66.1763C59.8789 66.1763 61.1445 64.7876 61.1445 62.9185C61.1445 61.5356 60.0312 60.522 58.6191 60.522C57.9335 60.522 57.2597 60.7681 56.7968 61.2368L56.7207 61.231L57.6289 58.2661H61.5312L61.6894 57.5454H57.1074L55.6894 62.104H56.4921C56.9199 61.5767 57.6523 61.2017 58.4316 61.2017C59.5332 61.2017 60.3242 61.9282 60.3242 63.0239C60.3242 64.4302 59.3574 65.4673 57.9746 65.4673C56.8203 65.4673 56.0292 64.77 56.0292 63.8442V63.8032H55.2324C55.2324 63.8145 55.2315 63.8327 55.2304 63.8529L55.2289 63.8814C55.2276 63.9052 55.2265 63.9284 55.2265 63.9438C55.2265 65.186 56.4042 66.1763 57.9453 66.1763ZM65.6391 60.4517C67.1039 60.4517 68.1703 61.4595 68.1703 62.8481C68.1703 64.729 66.7465 66.1763 64.9008 66.1763C63.3071 66.1763 62.1703 65.0688 62.1703 63.1821C62.1703 60.7739 63.4067 57.3696 66.184 57.3696C67.6254 57.3696 68.6918 58.3071 68.7446 59.6138H67.9184C67.8539 58.6997 67.1508 58.0903 66.1078 58.0903C64.6782 58.0903 63.5649 59.438 63.0961 61.8169L63.1723 61.8228C63.6938 60.979 64.6078 60.4517 65.6391 60.4517ZM67.3383 62.9478C67.3383 61.8931 66.559 61.1431 65.4575 61.1431C64.1215 61.1431 63.0082 62.2095 63.0082 63.5688C63.0082 64.6821 63.7992 65.4556 64.9535 65.4556C66.2895 65.4556 67.3383 64.354 67.3383 62.9478ZM69.3368 62.9536H73.1806L73.3388 62.2271H69.495L69.3368 62.9536ZM80.6283 63.3579C80.6283 64.8638 79.3334 66.0005 77.435 66.0005H74.0775L75.8764 57.5454H78.6889C80.1185 57.5454 81.0326 58.2896 81.0326 59.3677C81.0326 60.4985 80.2475 61.3657 79.0814 61.5708L79.0639 61.647C80.0248 61.7993 80.6283 62.4497 80.6283 63.3579ZM78.4076 58.2544H76.5385L75.8939 61.272H77.9271C79.2455 61.272 80.2006 60.563 80.2006 59.5317C80.2006 58.729 79.5971 58.2544 78.4076 58.2544ZM75.7475 61.9692L75.0385 65.2915H77.4115C78.7943 65.2915 79.7846 64.4653 79.7846 63.4224C79.7846 62.5024 79.1107 61.9692 77.8392 61.9692H75.7475ZM82.1698 66.0005L83.9686 57.5454H83.1542L81.3553 66.0005H82.1698ZM88.557 58.272L86.9164 66.0005H86.1019L87.7425 58.272H84.9183L85.0707 57.5454H91.5336L91.3871 58.272H88.557Z" fill="#1C1E21"/>
<defs>
<linearGradient id="paint0_linear" x1="57" y1="5" x2="57" y2="80" gradientUnits="userSpaceOnUse">
<stop stop-color="#F5F5F5"/>
<stop offset="1" stop-color="white"/>
</linearGradient>
</defs>
</svg>
