<svg width="115" height="80" viewBox="0 0 115 80" fill="none" xmlns="http://www.w3.org/2000/svg">
<rect x="0.5" y="0.5" width="114" height="79" rx="9.5" fill="url(#paint0_linear)"/>
<rect x="0.5" y="0.5" width="114" height="79" rx="9.5" stroke="#E8E8E8"/>
<rect x="0.5" y="0.5" width="114" height="79" rx="9.5" stroke="#EDEDED"/>
<path d="M11.4793 49L13.0687 41.5659H13.1785L14.5628 48.6338H15.9031L20.3489 41.5659H20.4588L18.8694 49H20.6346L22.8831 38.4312H20.576L15.7347 46.1802H15.6102L14.1087 38.4312H11.9554L9.70684 49H11.4793ZM28.9042 39.874C30.4496 39.874 31.4896 41.0312 31.4896 42.7671C31.4896 45.5137 29.9003 47.5645 27.7909 47.5645C26.2309 47.5645 25.1835 46.4072 25.1835 44.6714C25.1835 41.9614 26.8021 39.874 28.9042 39.874ZM27.703 49.2637C30.9843 49.2637 33.4452 46.5098 33.4452 42.6133C33.4452 40.0645 31.6801 38.1675 28.9921 38.1675C25.7035 38.1675 23.2353 40.9434 23.2353 44.8179C23.2353 47.3667 25.037 49.2637 27.703 49.2637ZM35.6431 49L37.2251 41.6392H37.3569L41.019 49H42.5718L44.8203 38.4312H42.9673L41.3706 45.8359H41.2461L37.5913 38.4312H36.0386L33.79 49H35.6431ZM51.7569 47.3667H46.8131L47.4649 44.4077H52.1231L52.4454 42.8696H47.7799L48.3951 40.0645H53.3243L53.6686 38.4312H46.8204L44.5719 49H51.42L51.7569 47.3667ZM57.9904 49L58.8327 44.9937L63.9304 38.4312H61.8356L58.3566 42.9868H58.2248L56.5988 38.4312H54.6286L56.965 44.8691L56.0861 49H57.9904ZM71.0946 49C73.4457 49 75.1303 47.6011 75.1303 45.6528C75.1303 44.5615 74.4198 43.7632 73.2626 43.5581L73.2846 43.4263C74.6762 43.1992 75.6356 42.0933 75.6356 40.731C75.6356 39.3467 74.4418 38.4312 72.6327 38.4312H68.5458L66.2973 49H71.0946ZM70.1425 39.9033H71.9442C73.1161 39.9033 73.7167 40.3208 73.7167 41.1411C73.7167 42.1445 72.7792 42.8477 71.4242 42.8477H69.5126L70.1425 39.9033ZM68.5238 47.4766L69.2196 44.21H71.3217C72.5448 44.21 73.204 44.7007 73.204 45.6235C73.204 46.6929 72.2006 47.4766 70.8383 47.4766H68.5238ZM81.7446 40.46H81.8691L82.3965 44.8032H79.3569L81.7446 40.46ZM82.8359 49H84.7476L83.2754 38.4312H81.2026L75.1309 49H77.1157L78.5952 46.2974H82.5137L82.8359 49ZM93.9767 42.0127H95.8297C95.837 41.9395 95.8443 41.8735 95.8443 41.8003C95.8443 39.7275 94.0499 38.1675 91.6768 38.1675C88.3663 38.1675 85.9566 40.98 85.9566 44.8765C85.9566 47.5278 87.6559 49.2637 90.234 49.2637C92.6949 49.2637 94.5479 47.9307 95.0387 45.8286H93.1417C92.7828 46.876 91.6915 47.5718 90.4098 47.5718C88.8643 47.5718 87.8976 46.4805 87.8976 44.73C87.8976 41.9688 89.4869 39.8594 91.5523 39.8594C92.9513 39.8594 93.9034 40.687 93.9767 41.9468C93.9767 41.9907 93.9767 41.998 93.9767 42.0127ZM97.7126 49L98.423 45.7114L99.9318 44.3198L102.312 49H104.458L101.477 43.1699L106.465 38.4312H104.18L99.0456 43.2578H98.9211L99.9538 38.4312H98.0715L95.823 49H97.7126ZM32.2584 61.4995H27.8932L27.5855 62.9717H30.0831L30.0245 63.2354C29.7389 64.6416 28.567 65.5645 27.0802 65.5645C25.4615 65.5645 24.4581 64.4658 24.4581 62.6787C24.4581 59.9248 26.0255 57.8667 28.0982 57.8667C29.4898 57.8667 30.464 58.6431 30.5372 59.8076H32.3976C32.3976 59.6904 32.3976 59.6172 32.3976 59.5513C32.3023 57.6177 30.5152 56.1675 28.2301 56.1675C24.9122 56.1675 22.5172 58.9434 22.5172 62.8252C22.5172 65.4985 24.2677 67.2637 26.8824 67.2637C29.5997 67.2637 31.3941 65.7329 31.9728 62.8765L32.2584 61.4995ZM41.1799 58.9873H39.3562L38.3527 63.7114C38.111 64.8174 37.364 65.5718 36.28 65.5718C35.3571 65.5718 34.9104 65.1323 34.9104 64.2314C34.9104 64.0703 34.947 63.7407 34.9982 63.5063L35.9577 58.9873H34.1267L33.1159 63.7993C33.05 64.1436 33.0061 64.583 33.0061 64.8247C33.0061 66.209 33.9729 67.1611 35.4377 67.1611C36.5876 67.1611 37.3859 66.6265 37.8547 65.8354H37.9792L37.7229 67H39.4807L41.1799 58.9873ZM44.264 65.7109C43.4876 65.7109 42.9456 65.2861 42.9456 64.6855C42.9456 63.9897 43.5901 63.5283 44.6814 63.4844L46.5052 63.4038L46.3367 64.1802C46.139 65.0664 45.2747 65.7109 44.264 65.7109ZM43.5462 67.1318C44.4983 67.1318 45.3772 66.6924 45.868 65.9893H45.9998L45.7801 67H47.5452L48.6512 61.7925C48.6878 61.5947 48.7171 61.353 48.7171 61.1406C48.7171 59.749 47.4646 58.8262 45.5823 58.8262C43.8245 58.8262 42.4988 59.7124 42.1473 61.126H43.9197C44.1395 60.5986 44.6814 60.3057 45.4432 60.3057C46.3587 60.3057 46.9153 60.7012 46.9153 61.3457C46.9153 61.4409 46.9007 61.5215 46.8714 61.668L46.7615 62.1807L44.6668 62.2612C42.4256 62.3418 41.1438 63.3232 41.1438 64.9346C41.1438 66.1797 42.1766 67.1318 43.5462 67.1318ZM49.0106 67H50.8344L51.8012 62.4663C52.0868 61.1553 52.768 60.5181 53.9105 60.5181C54.2475 60.5181 54.7602 60.5913 55.0531 60.6938L55.4193 59.002C55.2069 58.9141 54.8114 58.8555 54.4306 58.8555C53.537 58.8555 52.8485 59.2656 52.3798 60.0566H52.2553L52.475 58.9873H50.7099L49.0106 67ZM57.8296 65.7109C57.0532 65.7109 56.5112 65.2861 56.5112 64.6855C56.5112 63.9897 57.1558 63.5283 58.2471 63.4844L60.0708 63.4038L59.9023 64.1802C59.7046 65.0664 58.8403 65.7109 57.8296 65.7109ZM57.1118 67.1318C58.064 67.1318 58.9429 66.6924 59.4336 65.9893H59.5654L59.3457 67H61.1108L62.2168 61.7925C62.2534 61.5947 62.2827 61.353 62.2827 61.1406C62.2827 59.749 61.0303 58.8262 59.1479 58.8262C57.3901 58.8262 56.0645 59.7124 55.7129 61.126H57.4854C57.7051 60.5986 58.2471 60.3057 59.0088 60.3057C59.9243 60.3057 60.481 60.7012 60.481 61.3457C60.481 61.4409 60.4663 61.5215 60.437 61.668L60.3271 62.1807L58.2324 62.2612C55.9912 62.3418 54.7095 63.3232 54.7095 64.9346C54.7095 66.1797 55.7422 67.1318 57.1118 67.1318ZM62.6129 67H64.4366L65.462 62.2173C65.6891 61.1772 66.4288 60.4082 67.4762 60.4082C68.3917 60.4082 68.9044 60.9795 68.9044 61.7925C68.9044 61.9976 68.8751 62.2173 68.8238 62.4663L67.857 67H69.6734L70.7062 62.1587C70.7721 61.8291 70.8087 61.5068 70.8087 61.2212C70.8087 59.9175 69.9005 58.8555 68.3917 58.8555C67.2271 58.8555 66.4508 59.4487 65.9454 60.2324H65.8136L66.0846 58.9873H64.3194L62.6129 67ZM74.3542 67.0366C74.7644 67.0366 75.1379 67.0146 75.3723 66.9561L75.6652 65.5498C75.4895 65.5718 75.2917 65.5864 75.0573 65.5864C74.4641 65.5864 74.1272 65.3521 74.1272 64.8174C74.1272 64.6709 74.1564 64.4805 74.2004 64.2607L75.0134 60.4888H76.7419L77.0568 59.0386H75.3064L75.7385 57.0244H73.9074L73.4899 59.0386H72.1789L71.8786 60.4888H73.1823L72.2888 64.6709C72.2375 64.9199 72.2082 65.1616 72.2082 65.3667C72.2082 66.4507 73.0798 67.0366 74.3542 67.0366ZM78.8738 62.1807C79.1814 61.0381 80.0091 60.2764 81.0784 60.2764C82.1111 60.2764 82.6824 60.9941 82.6824 61.8877C82.6824 61.9902 82.6751 62.1367 82.6678 62.1807H78.8738ZM80.346 67.1611C82.2796 67.1611 83.6346 66.1797 83.9861 64.7881H82.1917C81.9207 65.3374 81.3567 65.6816 80.4559 65.6816C79.5257 65.6816 78.6541 65.0811 78.6541 63.6968C78.6541 63.6089 78.6614 63.499 78.6687 63.4111H84.323C84.389 63.0596 84.4402 62.459 84.4402 62.144C84.4329 60.0786 82.9974 58.8262 81.1736 58.8262C78.6614 58.8262 76.9036 60.811 76.9036 63.7554C76.9036 65.916 78.3685 67.1611 80.346 67.1611ZM87.2387 62.1807C87.5463 61.0381 88.3739 60.2764 89.4433 60.2764C90.476 60.2764 91.0473 60.9941 91.0473 61.8877C91.0473 61.9902 91.0399 62.1367 91.0326 62.1807H87.2387ZM88.7108 67.1611C90.6444 67.1611 91.9994 66.1797 92.351 64.7881H90.5565C90.2856 65.3374 89.7216 65.6816 88.8207 65.6816C87.8905 65.6816 87.019 65.0811 87.019 63.6968C87.019 63.6089 87.0263 63.499 87.0336 63.4111H92.6879C92.7538 63.0596 92.8051 62.459 92.8051 62.144C92.7978 60.0786 91.3622 58.8262 89.5385 58.8262C87.0263 58.8262 85.2685 60.811 85.2685 63.7554C85.2685 65.916 86.7333 67.1611 88.7108 67.1611Z" fill="#1C1E21"/>
<path d="M64 9H50C48.9 9 48.01 9.9 48.01 11L48 23.93C48 24.62 48.35 25.23 48.88 25.59L57 31L65.11 25.59C65.64 25.23 65.99 24.62 65.99 23.93L66 11C66 9.9 65.1 9 64 9ZM55 24L50 19L51.41 17.59L55 21.17L62.59 13.58L64 15L55 24Z" fill="#1C1E21"/>
<defs>
<linearGradient id="paint0_linear" x1="57" y1="5" x2="57" y2="80" gradientUnits="userSpaceOnUse">
<stop stop-color="#F5F5F5"/>
<stop offset="1" stop-color="white"/>
</linearGradient>
</defs>
</svg>
