<svg width="115" height="80" viewBox="0 0 115 80" fill="none" xmlns="http://www.w3.org/2000/svg">
<rect x="0.5" y="0.5" width="114" height="79" rx="9.5" fill="url(#paint0_linear)"/>
<rect x="0.5" y="0.5" width="114" height="79" rx="9.5" stroke="#E8E8E8"/>
<rect x="0.5" y="0.5" width="114" height="79" rx="9.5" stroke="#EDEDED"/>
<path d="M27.0528 46.8203C27.2481 48.9688 28.9434 50.2812 31.4122 50.2812C34.0997 50.2812 35.9356 48.8203 35.9356 46.6562C35.9356 45.1797 35.0606 44.2266 33.17 43.6016L32.0606 43.2344C30.9434 42.8594 30.4434 42.3594 30.4434 41.6719C30.4434 40.7734 31.3419 40.125 32.5528 40.125C33.795 40.125 34.6856 40.8047 34.8809 41.8594H36.8106C36.7012 39.8516 34.9981 38.4453 32.6466 38.4453C30.1934 38.4453 28.3731 39.9062 28.3731 41.8906C28.3731 43.2891 29.3028 44.375 30.92 44.9062L32.0606 45.2734C33.3653 45.7031 33.8809 46.1719 33.8809 46.9375C33.8809 47.9297 32.9356 48.6016 31.5684 48.6016C30.2403 48.6016 29.2169 47.8984 29.0216 46.8203H27.0528Z" fill="#1C1E21"/>
<path d="M44.4519 48.2578H39.1784L39.8737 45.1016H44.8425L45.1862 43.4609H40.2097L40.8659 40.4688H46.1237L46.4909 38.7266H39.1862L36.7878 50H44.0925L44.4519 48.2578Z" fill="#1C1E21"/>
<path d="M55.1244 42.5469H57.1009C57.1087 42.4688 57.1166 42.3984 57.1166 42.3203C57.1166 40.1094 55.2025 38.4453 52.6712 38.4453C49.14 38.4453 46.5697 41.4453 46.5697 45.6016C46.5697 48.4297 48.3822 50.2812 51.1322 50.2812C53.7572 50.2812 55.7337 48.8594 56.2572 46.6172H54.2337C53.8509 47.7344 52.6869 48.4766 51.3197 48.4766C49.6712 48.4766 48.64 47.3125 48.64 45.4453C48.64 42.5 50.3353 40.25 52.5384 40.25C54.0306 40.25 55.0462 41.1328 55.1244 42.4766C55.1244 42.5234 55.1244 42.5312 55.1244 42.5469Z" fill="#1C1E21"/>
<path d="M62.1875 50.2812C64.9375 50.2812 66.6719 48.8672 67.1797 46.4922L68.8281 38.7266H66.7891L65.2344 46.0547C64.9062 47.5859 63.8203 48.4609 62.375 48.4609C60.8672 48.4609 60.0469 47.7031 60.0078 46.4922C60.0078 46.2188 60.0312 45.9219 60.1016 45.6016L61.5547 38.7266H59.5156L58.0547 45.6797C57.9844 46.0156 57.9453 46.3516 57.9531 46.6719C57.9687 48.7344 59.5 50.2812 62.1875 50.2812Z" fill="#1C1E21"/>
<path d="M68.5553 50H70.5944L71.4928 45.7734H73.8209L75.2116 50H77.3834L75.8131 45.5234C77.5709 45.0078 78.6803 43.5391 78.6803 41.8438C78.6803 39.9922 77.2897 38.7266 75.2116 38.7266H70.9537L68.5553 50ZM72.6412 40.3984H74.8522C75.9537 40.3984 76.6178 41.0078 76.6178 42.0234C76.6178 43.2812 75.61 44.1719 74.1256 44.1719H71.8287L72.6412 40.3984Z" fill="#1C1E21"/>
<path d="M86.4387 48.2578H81.1653L81.8606 45.1016H86.8294L87.1731 43.4609H82.1965L82.8528 40.4688H88.1106L88.4778 38.7266H81.1731L78.7747 50H86.0794L86.4387 48.2578Z" fill="#1C1E21"/>
<path d="M23.3494 61.5469H25.3259C25.3337 61.4688 25.3416 61.3984 25.3416 61.3203C25.3416 59.1094 23.4275 57.4453 20.8962 57.4453C17.365 57.4453 14.7947 60.4453 14.7947 64.6016C14.7947 67.4297 16.6072 69.2812 19.3572 69.2812C21.9822 69.2812 23.9587 67.8594 24.4822 65.6172H22.4587C22.0759 66.7344 20.9119 67.4766 19.5447 67.4766C17.8962 67.4766 16.865 66.3125 16.865 64.4453C16.865 61.5 18.5603 59.25 20.7634 59.25C22.2556 59.25 23.2712 60.1328 23.3494 61.4766C23.3494 61.5234 23.3494 61.5312 23.3494 61.5469Z" fill="#1C1E21"/>
<path d="M34.8422 69L37.2406 57.7266H35.2094L34.2094 62.3906H28.7484L29.7484 57.7266H27.7094L25.3109 69H27.3422L28.3812 64.1328H33.8422L32.8031 69H34.8422Z" fill="#1C1E21"/>
<path d="M44.6475 67.2578H39.3741L40.0694 64.1016H45.0381L45.3819 62.4609H40.4053L41.0616 59.4688H46.3194L46.6866 57.7266H39.3819L36.9834 69H44.2881L44.6475 67.2578Z" fill="#1C1E21"/>
<path d="M55.32 61.5469H57.2966C57.3044 61.4688 57.3122 61.3984 57.3122 61.3203C57.3122 59.1094 55.3981 57.4453 52.8669 57.4453C49.3356 57.4453 46.7653 60.4453 46.7653 64.6016C46.7653 67.4297 48.5778 69.2812 51.3278 69.2812C53.9528 69.2812 55.9294 67.8594 56.4528 65.6172H54.4294C54.0466 66.7344 52.8825 67.4766 51.5153 67.4766C49.8669 67.4766 48.8356 66.3125 48.8356 64.4453C48.8356 61.5 50.5309 59.25 52.7341 59.25C54.2262 59.25 55.2419 60.1328 55.32 61.4766C55.32 61.5234 55.32 61.5312 55.32 61.5469Z" fill="#1C1E21"/>
<path d="M59.305 69L60.0628 65.4922L61.6722 64.0078L64.2112 69H66.5003L63.3206 62.7812L68.6409 57.7266H66.2034L60.7269 62.875H60.5941L61.6956 57.7266H59.6878L57.2894 69H59.305Z" fill="#1C1E21"/>
<path d="M73.7275 59.2656C75.3759 59.2656 76.4853 60.5 76.4853 62.3516C76.4853 65.2812 74.79 67.4688 72.54 67.4688C70.8759 67.4688 69.7587 66.2344 69.7587 64.3828C69.7587 61.4922 71.4853 59.2656 73.7275 59.2656ZM72.4462 69.2812C75.9462 69.2812 78.5712 66.3438 78.5712 62.1875C78.5712 59.4688 76.6884 57.4453 73.8212 57.4453C70.3134 57.4453 67.6806 60.4062 67.6806 64.5391C67.6806 67.2578 69.6025 69.2812 72.4462 69.2812Z" fill="#1C1E21"/>
<path d="M84.0406 69.2812C86.7906 69.2812 88.525 67.8672 89.0328 65.4922L90.6812 57.7266H88.6422L87.0875 65.0547C86.7594 66.5859 85.6734 67.4609 84.2281 67.4609C82.7203 67.4609 81.9 66.7031 81.8609 65.4922C81.8609 65.2188 81.8844 64.9219 81.9547 64.6016L83.4078 57.7266H81.3687L79.9078 64.6797C79.8375 65.0156 79.7984 65.3516 79.8062 65.6719C79.8219 67.7344 81.3531 69.2812 84.0406 69.2812Z" fill="#1C1E21"/>
<path d="M95.2287 69L97.2678 59.4688H100.729L101.088 57.7266H92.1272L91.7678 59.4688H95.2287L93.1975 69H95.2287Z" fill="#1C1E21"/>
<path d="M57 10L49 13.5702V18.9256C49 23.8793 52.4133 28.5117 57 29.6364C61.5867 28.5117 65 23.8793 65 18.9256V13.5702L57 10ZM55.2222 24.281L51.6667 20.7107L52.92 19.4522L55.2222 21.755L61.08 15.8731L62.3333 17.1405L55.2222 24.281Z" fill="#333E47"/>
<defs>
<linearGradient id="paint0_linear" x1="57" y1="5" x2="57" y2="80" gradientUnits="userSpaceOnUse">
<stop stop-color="#F5F5F5"/>
<stop offset="1" stop-color="white"/>
</linearGradient>
</defs>
</svg>
