<svg width="115" height="80" viewBox="0 0 115 80" fill="none" xmlns="http://www.w3.org/2000/svg">
<rect x="0.5" y="0.5" width="114" height="79" rx="9.5" fill="url(#paint0_linear)"/>
<rect x="0.5" y="0.5" width="114" height="79" rx="9.5" stroke="#E8E8E8"/>
<rect x="0.5" y="0.5" width="114" height="79" rx="9.5" stroke="#EDEDED"/>
<path d="M37.7088 49L43.6048 38.4312H41.4881L37.1229 46.7661H36.9983L36.0315 38.4312H34.076L35.5335 49H37.7088ZM49.7577 47.3667H44.8139L45.4657 44.4077H50.1239L50.4462 42.8696H45.7807L46.3959 40.0645H51.3251L51.6693 38.4312H44.8212L42.5727 49H49.4208L49.7577 47.3667ZM61.4917 43.4995H57.1265L56.8188 44.9717H59.3164L59.2578 45.2354C58.9722 46.6416 57.8003 47.5645 56.3135 47.5645C54.6948 47.5645 53.6914 46.4658 53.6914 44.6787C53.6914 41.9248 55.2588 39.8667 57.3315 39.8667C58.7231 39.8667 59.6973 40.6431 59.7705 41.8076H61.6309C61.6309 41.6904 61.6309 41.6172 61.6309 41.5513C61.5356 39.6177 59.7485 38.1675 57.4634 38.1675C54.1455 38.1675 51.7505 40.9434 51.7505 44.8252C51.7505 47.4985 53.501 49.2637 56.1157 49.2637C58.833 49.2637 60.6274 47.7329 61.2061 44.8765L61.4917 43.4995ZM67.6593 40.46H67.7838L68.3111 44.8032H65.2716L67.6593 40.46ZM68.7506 49H70.6622L69.19 38.4312H67.1173L61.0455 49H63.0304L64.5099 46.2974H68.4283L68.7506 49ZM73.7536 49L75.3356 41.6392H75.4675L79.1296 49H80.6823L82.9309 38.4312H81.0778L79.4812 45.8359H79.3566L75.7019 38.4312H74.1491L71.9006 49H73.7536ZM32.6105 56.4312L30.3693 67H32.2736L33.0134 63.5356H35.2912C37.8547 63.5356 39.7297 61.9829 39.7297 59.4414C39.7297 57.6104 38.3601 56.4312 36.4191 56.4312H32.6105ZM34.1926 58.0132H35.9211C37.0783 58.0132 37.7961 58.5771 37.7961 59.6099C37.7961 61.0747 36.778 61.9683 35.2399 61.9683H33.3356L34.1926 58.0132ZM39.3714 67H41.1951L42.1619 62.4663C42.4476 61.1553 43.1287 60.5181 44.2713 60.5181C44.6082 60.5181 45.1209 60.5913 45.4139 60.6938L45.7801 59.002C45.5677 58.9141 45.1722 58.8555 44.7913 58.8555C43.8978 58.8555 43.2093 59.2656 42.7405 60.0566H42.616L42.8357 58.9873H41.0706L39.3714 67ZM49.018 65.6377C47.9853 65.6377 47.3114 64.854 47.3114 63.6309C47.3114 61.7266 48.3222 60.3496 49.7211 60.3496C50.7611 60.3496 51.3764 61.1333 51.3764 62.4443C51.3764 64.1948 50.3144 65.6377 49.018 65.6377ZM49.8383 58.8262C47.2748 58.8262 45.4071 60.8916 45.4071 63.7261C45.4071 65.7769 46.8061 67.1611 48.8788 67.1611C51.413 67.1611 53.288 65.0737 53.288 62.2612C53.288 60.1958 51.9037 58.8262 49.8383 58.8262ZM56.8921 67.1318C57.9395 67.1318 58.811 66.6484 59.3677 65.894H59.4995L59.2651 67H61.0229L63.3813 55.8892H61.5576L60.5981 60.3936H60.4663C60.2026 59.5073 59.3237 58.8555 58.1519 58.8555C55.8594 58.8555 54.0649 61.0088 54.0649 63.9604C54.0649 65.9233 55.2954 67.1318 56.8921 67.1318ZM57.6392 65.6011C56.6577 65.6011 55.9546 64.8467 55.9546 63.6602C55.9546 61.7852 57.0532 60.4155 58.4448 60.4155C59.4702 60.4155 60.1514 61.1187 60.1514 62.3052C60.1514 64.1216 59.0527 65.6011 57.6392 65.6011ZM71.358 58.9873H69.5343L68.5309 63.7114C68.2892 64.8174 67.5421 65.5718 66.4581 65.5718C65.5353 65.5718 65.0885 65.1323 65.0885 64.2314C65.0885 64.0703 65.1251 63.7407 65.1764 63.5063L66.1358 58.9873H64.3048L63.294 63.7993C63.2281 64.1436 63.1842 64.583 63.1842 64.8247C63.1842 66.209 64.151 67.1611 65.6158 67.1611C66.7657 67.1611 67.5641 66.6265 68.0328 65.8354H68.1573L67.901 67H69.6588L71.358 58.9873ZM76.0388 58.8262C73.468 58.8262 71.6882 60.9429 71.6882 63.7773C71.6882 65.8281 73.0212 67.1611 75.0939 67.1611C77.0715 67.1611 78.4777 65.9966 78.7707 64.4365H76.9909C76.7272 65.1982 76.0754 65.623 75.2111 65.623C74.2297 65.623 73.5266 64.9272 73.5266 63.6162C73.5266 61.7705 74.5153 60.3569 75.9143 60.3569C76.7858 60.3569 77.467 60.8623 77.5256 61.6387H79.2761C79.2761 61.5288 79.2687 61.4116 79.2541 61.3091C79.093 59.9834 77.8552 58.8262 76.0388 58.8262ZM82.5433 67.0366C82.9534 67.0366 83.327 67.0146 83.5613 66.9561L83.8543 65.5498C83.6785 65.5718 83.4808 65.5864 83.2464 65.5864C82.6531 65.5864 82.3162 65.3521 82.3162 64.8174C82.3162 64.6709 82.3455 64.4805 82.3895 64.2607L83.2024 60.4888H84.931L85.2459 59.0386H83.4954L83.9275 57.0244H82.0965L81.679 59.0386H80.368L80.0677 60.4888H81.3714L80.4778 64.6709C80.4266 64.9199 80.3973 65.1616 80.3973 65.3667C80.3973 66.4507 81.2688 67.0366 82.5433 67.0366Z" fill="#1C1E21"/>
<path d="M48.8188 14.5707C45.065 18.3258 45.065 24.4054 48.7913 28.1604C50.8125 23.4838 54.415 19.5774 58.9113 17.2529C55.1025 20.4715 52.435 24.9693 51.5 30.0723C55.075 31.7642 59.475 31.1452 62.4313 28.1879C67.2162 23.4013 68 9 68 9C68 9 53.6038 9.78402 48.8188 14.5707Z" fill="#1C1E21"/>
<defs>
<linearGradient id="paint0_linear" x1="57" y1="5" x2="57" y2="80" gradientUnits="userSpaceOnUse">
<stop stop-color="#F5F5F5"/>
<stop offset="1" stop-color="white"/>
</linearGradient>
</defs>
</svg>
